<svg width="55" height="57" viewBox="0 0 55 57" fill="none" xmlns="http://www.w3.org/2000/svg">
    <path d="M39.1123 4.53545C39.048 3.29851 39.0158 2.02985 39.0479 0.792911V0H38.2762C37.8582 0 37.4401 0 37.0864 0C36.2825 0 35.5107 7.2664e-07 34.7389 0.0317171C33.1632 0.158583 31.459 0.317164 29.7868 0.634328C22.2942 2.09328 18.3388 6.78731 18.3388 14.3041V14.6847C18.3388 14.9702 18.3388 15.2556 18.3388 15.5093C18.3388 16.1119 18.3388 16.7463 18.2745 16.8414C18.1137 16.9366 17.4063 16.9366 16.8918 16.9366C12.1969 17 8.62742 17.9515 5.60466 19.8862C2.38896 21.9478 0.556067 24.6119 0.234497 27.7519C0.00939824 29.7183 0.0737162 31.6847 0.13803 33.7463C0.13803 34.666 0.17012 35.5858 0.17012 36.5056V37.2351L0.909767 37.2985C1.10271 37.2985 1.29563 37.2985 1.48857 37.3619C1.81014 37.3619 2.13177 37.4254 2.45334 37.4254C3.73962 37.4254 5.02584 37.4254 6.31212 37.4254C10.2031 37.4254 14.2228 37.4254 18.1781 37.3302C20.1075 37.2985 21.9726 37.0448 23.6769 36.6325C29.4973 35.2052 32.9703 31.9702 34.2888 26.7052L34.8676 24.3899L33.0025 25.9123C33.0025 25.9123 32.8417 26.0392 32.7774 26.0709C32.6487 26.166 32.5201 26.2612 32.4236 26.4198C29.4652 30.3843 25.2848 32.4776 19.6252 32.8265C16.0236 33.0485 12.3576 33.0802 8.82036 33.0802H6.73018C6.27998 33.0802 5.86195 33.0802 5.54038 33.1119C5.12234 33.1119 4.67216 33.1119 4.44706 33.1119C4.38274 32.8582 4.41487 32.2873 4.41487 31.7164C4.41487 31.431 4.41487 31.1455 4.41487 30.7966C4.38271 25.8806 6.28001 23.3116 10.782 22.2015C12.7114 21.7257 14.7373 21.5989 16.8596 21.472C18.2424 21.3769 19.6573 21.3134 21.0722 21.1231C24.3843 20.6791 27.8252 20.2034 31.0731 19.2202C34.6746 18.1418 37.2794 15.6996 38.4049 12.3694C39.2731 9.76866 39.1766 7.10448 39.0479 4.53545M34.7389 4.4403C34.7389 4.94776 34.7068 5.42351 34.6746 5.89925C34.6103 7.51679 34.5782 9.0709 34.2888 10.5616C33.9672 12.2108 32.8096 13.5112 30.5907 14.6847C28.3076 15.8582 25.8314 16.4925 22.6157 16.6828C22.6157 16.2705 22.6157 15.8899 22.6157 15.5093C22.6157 14.1138 22.5514 12.8134 22.68 11.5448C22.8087 9.95896 23.6126 8.53172 24.9953 7.38993C27.9538 4.97948 31.5554 4.50373 34.8033 4.4403" fill="#075695"/>
    <path d="M54.5153 23.0896C54.5153 22.1698 54.4833 21.25 54.4833 20.3302V19.6008L53.7436 19.5373C53.5185 19.5373 53.3577 19.5373 53.1648 19.4739C52.8111 19.4422 52.4895 19.4105 52.1679 19.4105C50.8495 19.4105 49.5632 19.4105 48.2448 19.4105C44.3859 19.4105 40.3663 19.4105 36.4431 19.5056C34.5137 19.5373 32.6486 19.7911 30.9443 20.2034C25.1239 21.6306 21.651 24.8657 20.3325 30.1306L19.7536 32.4142L21.5866 30.8918C21.5866 30.8918 21.7474 30.7649 21.8117 30.7332C21.9404 30.6381 22.069 30.5429 22.1976 30.3843C25.156 26.4198 29.3365 24.3265 34.9961 23.9776C38.5655 23.7556 42.2315 23.7239 45.7687 23.7239H47.891C48.3412 23.7239 48.7593 23.7239 49.0809 23.6922C49.4989 23.6922 49.9491 23.6922 50.1742 23.6922C50.2385 23.9459 50.2063 24.5168 50.2063 25.0877C50.2063 25.3732 50.2063 25.6586 50.2063 26.0075C50.2385 30.9235 48.3413 33.4926 43.8393 34.6026C41.9099 35.0784 39.8839 35.2052 37.7616 35.3321C36.3788 35.4273 34.964 35.4907 33.5812 35.681C30.269 36.125 26.8282 36.6008 23.5482 37.584C19.9466 38.6623 17.3419 41.1045 16.2164 44.4347C15.3482 47.0355 15.4446 49.6996 15.5733 52.2687C15.6376 53.5056 15.6697 54.7743 15.6375 56.0112V56.8041H16.4094C16.8274 56.8041 17.2454 56.8041 17.5992 56.8041C17.9529 56.8041 18.2745 56.8041 18.6282 56.8041C19.0784 56.8041 19.4964 56.8041 19.9466 56.7724C21.4579 56.6455 23.1944 56.487 24.8988 56.1698C32.52 54.7108 36.3467 50.112 36.3467 42.5V42.1511C36.3467 41.8657 36.3467 41.5802 36.3467 41.3265C36.3467 40.7239 36.3467 40.0896 36.411 39.9944C36.5718 39.8993 37.2792 39.8993 37.7938 39.8993C42.4887 39.8358 46.0581 38.8843 49.0809 36.9814C52.2966 34.8881 54.1295 32.2556 54.4511 29.1157C54.644 27.1493 54.6118 25.1828 54.5475 23.1213M31.9734 45.3545C31.8447 46.9403 31.0408 48.3675 29.658 49.4776C26.6996 51.8881 23.098 52.3638 19.8501 52.4272C19.8501 51.9515 19.8823 51.444 19.9145 50.9683C19.9788 49.319 20.0109 47.7967 20.3003 46.306C20.6219 44.6567 21.7795 43.3564 23.9984 42.2146C26.2494 41.0411 28.7898 40.4067 31.9734 40.2164C31.9734 40.6287 31.9734 41.0093 31.9734 41.3899C31.9734 42.7855 32.0376 44.0858 31.909 45.3545" fill="#98C949"/>
</svg>
